<svg width="131" height="31" viewBox="0 0 131 31" fill="none" xmlns="http://www.w3.org/2000/svg">
<path d="M102.03 0.382911H97.2722C97.1329 0.380991 96.9945 0.407029 96.8653 0.459487C96.7362 0.511944 96.6189 0.589757 96.5203 0.688327C96.4217 0.786896 96.3439 0.904224 96.2915 1.03338C96.239 1.16253 96.213 1.30089 96.2149 1.44027V18.2196C96.1959 19.6171 95.6256 20.9506 94.6281 21.9296C93.6224 22.8642 92.3003 23.3836 90.9274 23.3836C89.5544 23.3836 88.2324 22.8642 87.2266 21.9296C86.3122 21.0052 85.7512 19.7892 85.6413 18.4936V1.44027C85.6432 1.30089 85.6172 1.16253 85.5647 1.03338C85.5123 0.904224 85.4344 0.786896 85.3359 0.688327C85.2373 0.589757 85.12 0.511944 84.9908 0.459487C84.8617 0.407029 84.7233 0.380991 84.5839 0.382911H79.9578C79.8184 0.380991 79.6801 0.407029 79.5509 0.459487C79.4218 0.511944 79.3044 0.589757 79.2059 0.688327C79.1073 0.786896 79.0295 0.904224 78.977 1.03338C78.9246 1.16253 78.8985 1.30089 78.9004 1.44027V18.4893C78.8897 19.1414 78.7431 19.7841 78.4702 20.3765C78.1972 20.9688 77.8038 21.4978 77.3151 21.9296C76.3094 22.8642 74.9873 23.3836 73.6144 23.3836C72.2414 23.3836 70.9193 22.8642 69.9136 21.9296C68.9167 20.9503 68.3469 19.6169 68.3283 18.2196V1.44027C68.3302 1.30089 68.3042 1.16253 68.2517 1.03338C68.1992 0.904224 68.1214 0.786896 68.0229 0.688327C67.9243 0.589757 67.807 0.511944 67.6778 0.459487C67.5487 0.407029 67.4103 0.380991 67.2709 0.382911H62.5135C62.3741 0.380991 62.2358 0.407029 62.1066 0.459487C61.9775 0.511944 61.8601 0.589757 61.7616 0.688327C61.663 0.786896 61.5852 0.904224 61.5327 1.03338C61.4803 1.16253 61.4542 1.30089 61.4562 1.44027V18.2196C61.4522 19.8174 61.764 21.4003 62.3736 22.8773C62.9833 24.3543 63.8788 25.6962 65.0086 26.8261C66.1385 27.9559 67.4804 28.8514 68.9574 29.461C70.4344 30.0707 72.0172 30.3825 73.6151 30.3785C75.2416 30.3698 76.8501 30.0383 78.3475 29.4031C79.8449 28.768 81.2012 27.8419 82.3379 26.6785C83.4746 27.8419 84.831 28.768 86.3284 29.4031C87.8257 30.0383 89.4343 30.3698 91.0608 30.3785C92.6585 30.3823 94.2412 30.0704 95.718 29.4606C97.1948 28.8509 98.5366 27.9554 99.6663 26.8256C100.796 25.6957 101.691 24.3538 102.301 22.877C102.91 21.4001 103.222 19.8173 103.218 18.2196V1.44027C103.15 1.16449 103 0.915788 102.788 0.727011C102.576 0.538233 102.311 0.418253 102.03 0.382911Z" fill="#101010"/>
<path d="M24.3178 18.2196C24.3178 21.4444 23.0368 24.537 20.7566 26.8173C18.4763 29.0975 15.3837 30.3785 12.1589 30.3785C8.93417 30.3785 5.84151 29.0975 3.56127 26.8173C1.28103 24.537 0 21.4444 0 18.2196L0 1.44027C0.019559 1.16631 0.137239 0.90858 0.331454 0.714365C0.525669 0.520151 0.783396 0.40247 1.05736 0.382911H5.81476C5.95415 0.380991 6.09251 0.407029 6.22166 0.459487C6.35081 0.511944 6.46814 0.589757 6.56671 0.688327C6.66528 0.786897 6.74309 0.904224 6.79555 1.03338C6.84801 1.16253 6.87404 1.30089 6.87212 1.44027V18.2196C6.89113 19.6171 7.46143 20.9506 8.45888 21.9296C8.94983 22.4032 9.52931 22.7754 10.1642 23.0249C10.7991 23.2744 11.4769 23.3963 12.1589 23.3837C12.8409 23.3963 13.5188 23.2744 14.1536 23.0249C14.7885 22.7754 15.368 22.4032 15.859 21.9296C16.8564 20.9506 17.4267 19.6171 17.4457 18.2196V1.44027C17.4438 1.30101 17.4698 1.16277 17.5222 1.03371C17.5745 0.904656 17.6522 0.787394 17.7506 0.688843C17.8491 0.590293 17.9662 0.51245 18.0952 0.459907C18.2242 0.407363 18.3624 0.381184 18.5016 0.382911H23.2591C23.3984 0.380991 23.5368 0.407029 23.666 0.459487C23.7951 0.511944 23.9124 0.589757 24.011 0.688327C24.1096 0.786897 24.1874 0.904224 24.2398 1.03338C24.2923 1.16253 24.3183 1.30089 24.3164 1.44027L24.3178 18.2196Z" fill="#71E5BD"/>
<path d="M106.657 12.5417C106.657 9.31699 107.938 6.22432 110.218 3.94408C112.498 1.66384 115.591 0.382813 118.816 0.382812C122.041 0.382813 125.133 1.66384 127.413 3.94408C129.694 6.22432 130.975 9.31699 130.975 12.5417V29.3254C130.977 29.4647 130.951 29.6031 130.898 29.7322C130.846 29.8614 130.768 29.9787 130.669 30.0773C130.571 30.1759 130.453 30.2537 130.324 30.3061C130.195 30.3586 130.057 30.3846 129.917 30.3827H125.158C125.019 30.3846 124.881 30.3586 124.752 30.3061C124.622 30.2537 124.505 30.1759 124.407 30.0773C124.308 29.9787 124.23 29.8614 124.178 29.7322C124.125 29.6031 124.099 29.4647 124.101 29.3254V12.5417C124.065 11.1529 123.497 9.83083 122.515 8.84841C121.532 7.866 120.21 7.29816 118.821 7.26207C118.139 7.24945 117.462 7.37137 116.827 7.62087C116.192 7.87036 115.612 8.24254 115.121 8.71612C114.127 9.69296 113.557 11.0223 113.536 12.4162V29.1941C113.538 29.3335 113.512 29.4718 113.46 29.601C113.407 29.7301 113.329 29.8475 113.231 29.946C113.132 30.0446 113.015 30.1224 112.886 30.1749C112.756 30.2273 112.618 30.2534 112.479 30.2514H107.714C107.575 30.2534 107.436 30.2273 107.307 30.1749C107.178 30.1224 107.061 30.0446 106.962 29.946C106.864 29.8475 106.786 29.7301 106.733 29.601C106.681 29.4718 106.655 29.3335 106.657 29.1941V12.5417Z" fill="#101010"/>
<path d="M46.9183 22.8499C45.6642 23.5434 44.2546 23.9072 42.8215 23.9072C41.3885 23.9072 39.9789 23.5434 38.7248 22.8499C37.3991 22.1228 36.2942 21.0514 35.5267 19.7488C34.7592 18.4461 34.3576 16.9604 34.3641 15.4484C34.3641 13.1702 35.2691 10.9852 36.8801 9.37425C38.491 7.76329 40.676 6.85826 42.9542 6.85826C45.2325 6.85826 47.4174 7.76329 49.0284 9.37425C50.6394 10.9852 51.5444 13.1702 51.5444 15.4484C51.4719 16.9751 51.0084 18.4575 50.1983 19.7536C49.3882 21.0496 48.2588 22.1158 46.9183 22.8499ZM42.8215 0.382821C39.8678 0.382821 36.9804 1.2587 34.5245 2.89971C32.0685 4.54071 30.1544 6.87313 29.024 9.60202C27.8937 12.3309 27.5979 15.3337 28.1742 18.2307C28.7504 21.1276 30.1728 23.7887 32.2614 25.8773C34.35 27.9659 37.011 29.3882 39.908 29.9645C42.805 30.5407 45.8077 30.245 48.5366 29.1146C51.2655 27.9843 53.5979 26.0701 55.2389 23.6142C56.88 21.1583 57.7558 18.2709 57.7558 15.3171C57.7579 13.3553 57.373 11.4124 56.6232 9.59958C55.8734 7.78673 54.7735 6.13956 53.3863 4.75237C51.9991 3.36518 50.3519 2.26521 48.5391 1.51542C46.7262 0.765634 44.7833 0.380756 42.8215 0.382821Z" fill="#101010"/>
</svg>
